<svg width="133" height="22" viewBox="0 0 133 22" fill="none" xmlns="http://www.w3.org/2000/svg">
<path d="M9.57568 12.5964C9.3534 12.4095 9.09235 12.2653 8.80806 12.1722C8.52371 12.0792 8.22184 12.0392 7.92029 12.0548C7.6219 12.0416 7.32357 12.0826 7.04263 12.1756C6.76175 12.2686 6.50379 12.4116 6.28383 12.5964C6.10881 12.7547 6.00199 12.9654 5.98286 13.1897C5.92349 13.7099 5.92349 14.2344 5.98286 14.7546C6.03927 15.3909 6.15215 16.2335 6.30263 17.0933C6.36168 17.4909 6.44964 17.8844 6.56593 18.2713C6.67038 18.5057 6.85518 18.7029 7.0926 18.8331C7.33001 18.9633 7.60728 19.0196 7.88268 18.9935C8.15944 19.0202 8.43813 18.9642 8.67715 18.834C8.91624 18.7039 9.10272 18.5064 9.20884 18.2713C9.32513 17.8844 9.41316 17.4909 9.4722 17.0933C9.61329 16.2335 9.72616 15.3737 9.78257 14.7546C9.84194 14.2344 9.84194 13.7099 9.78257 13.1897C9.78959 12.9762 9.71657 12.7669 9.57568 12.5964ZM6.09568 9.68167C6.09568 10.0217 6.20604 10.3542 6.41274 10.637C6.61938 10.9198 6.9132 11.1402 7.25692 11.2704C7.60065 11.4006 7.97882 11.4346 8.34373 11.3683C8.70864 11.3019 9.0438 11.1381 9.30684 10.8976C9.56995 10.6571 9.74909 10.3507 9.82166 10.0172C9.89423 9.68357 9.85701 9.3378 9.71464 9.02355C9.57227 8.70937 9.33112 8.44079 9.02178 8.25184C8.71251 8.06289 8.34882 7.96201 7.97676 7.96201C7.47785 7.96201 6.99942 8.14318 6.64662 8.46567C6.29388 8.78817 6.09568 9.22557 6.09568 9.68167ZM7.92029 3.00087C6.04551 3.00871 4.23404 3.62152 2.80524 4.73122C1.37638 5.84093 0.422092 7.37616 0.110628 9.06625C-0.200901 10.7564 0.150423 12.4928 1.10259 13.9692C2.05475 15.4456 3.54659 16.5673 5.31505 17.1363C5.33282 17.1407 5.3515 17.1409 5.36946 17.1371C5.38743 17.1334 5.40404 17.1256 5.41795 17.1146C5.43186 17.1035 5.44261 17.0896 5.44931 17.0739C5.45594 17.0582 5.45826 17.0413 5.45614 17.0245C5.40913 16.7752 5.37146 16.5258 5.33386 16.2851C5.33012 16.2417 5.31318 16.2002 5.28492 16.1653C5.25665 16.1303 5.21821 16.1033 5.17397 16.0873C3.7171 15.4961 2.52726 14.4645 1.8042 13.1659C1.08121 11.8673 0.869104 10.3807 1.20362 8.95598C1.53814 7.53126 2.3988 6.25523 3.64105 5.34219C4.8833 4.42915 6.43142 3.93481 8.02531 3.94217C9.61927 3.94959 11.1619 4.45825 12.3939 5.38275C13.6259 6.30724 14.4724 7.59117 14.7911 9.01892C15.1098 10.4467 14.8813 11.9312 14.1438 13.2231C13.4065 14.515 12.2053 15.5354 10.7419 16.1131C10.6976 16.1291 10.6592 16.1561 10.6309 16.191C10.6027 16.226 10.5857 16.2675 10.582 16.3109C10.582 16.5516 10.5068 16.801 10.4597 17.0503C10.4576 17.067 10.46 17.084 10.4666 17.0997C10.4732 17.1154 10.484 17.1293 10.4979 17.1404C10.5118 17.1514 10.5285 17.1591 10.5464 17.1629C10.5644 17.1667 10.583 17.1664 10.6008 17.1621C12.3964 16.6049 13.9152 15.4798 14.8837 13.9896C15.8522 12.4993 16.2068 10.7419 15.8835 9.03377C15.5601 7.32574 14.5802 5.77935 13.1203 4.67327C11.6603 3.56718 9.81625 2.97409 7.92029 3.00087ZM7.77927 6.33693C8.65706 6.3054 9.52442 6.51995 10.2651 6.95188C11.0058 7.38376 11.5842 8.01236 11.923 8.75337C12.2617 9.49438 12.3445 10.3124 12.1604 11.0976C11.9762 11.8829 11.5337 12.5979 10.8924 13.1467C10.8586 13.1786 10.832 13.2163 10.8143 13.2576C10.7965 13.299 10.7879 13.3431 10.789 13.3875C10.8092 13.6738 10.8092 13.961 10.789 14.2473C10.7895 14.2651 10.7953 14.2825 10.8054 14.2977C10.8156 14.3129 10.8298 14.3255 10.8469 14.3341C10.864 14.3428 10.8832 14.3473 10.9027 14.3471C10.9222 14.347 10.9413 14.3422 10.9582 14.3333C11.9009 13.7469 12.6131 12.8996 12.9903 11.916C13.3676 10.9323 13.3901 9.86409 13.0545 8.86786C12.7188 7.87169 12.0429 7.0001 11.1256 6.38094C10.2083 5.76177 9.09815 5.4277 7.95796 5.4277C6.81777 5.4277 5.70759 5.76177 4.79032 6.38094C3.87306 7.0001 3.197 7.87169 2.86139 8.86786C2.52578 9.86409 2.54825 10.9323 2.92553 11.916C3.3028 12.8996 4.01504 13.7469 4.95768 14.3333C4.97377 14.3429 4.99258 14.3483 5.0119 14.3488C5.03115 14.3492 5.05021 14.3447 5.06682 14.3357C5.08343 14.3268 5.09702 14.3137 5.10597 14.2981C5.11492 14.2825 5.11898 14.2649 5.11756 14.2473C5.11756 13.9549 5.11756 13.6884 5.11756 13.3875C5.12239 13.3427 5.11557 13.2975 5.0976 13.2557C5.07957 13.2139 5.05098 13.1765 5.01408 13.1467C4.39598 12.6116 3.96475 11.9213 3.7746 11.1627C3.58445 10.4041 3.64389 9.61107 3.94543 8.88324C4.24705 8.15547 4.77725 7.52544 5.4694 7.07236C6.16161 6.61929 6.98487 6.36342 7.83568 6.33693H7.77927Z" fill="black"/>
<path d="M29.572 6.032C30.4773 6.032 31.266 6.20933 31.938 6.564C32.61 6.91867 33.1327 7.44133 33.506 8.132C33.8793 8.82267 34.066 9.658 34.066 10.638V16H31.798V13.648H27.318V16H25.078V10.638C25.078 9.658 25.2647 8.82267 25.638 8.132C26.0113 7.44133 26.534 6.91867 27.206 6.564C27.878 6.20933 28.6667 6.032 29.572 6.032ZM31.798 11.828V10.428C31.798 9.616 31.5973 9.00467 31.196 8.594C30.7947 8.174 30.2487 7.964 29.558 7.964C28.858 7.964 28.3073 8.174 27.906 8.594C27.514 9.00467 27.318 9.616 27.318 10.428V11.828H31.798ZM40.6026 8.356C41.3026 8.356 41.9372 8.51933 42.5066 8.846C43.0852 9.16333 43.5379 9.616 43.8646 10.204C44.1912 10.7827 44.3546 11.4593 44.3546 12.234C44.3546 13.0087 44.1912 13.69 43.8646 14.278C43.5379 14.8567 43.0852 15.3093 42.5066 15.636C41.9372 15.9533 41.3026 16.112 40.6026 16.112C39.6412 16.112 38.8852 15.8087 38.3346 15.202V18.716H36.1506V8.468H38.2366V9.336C38.7779 8.68267 39.5666 8.356 40.6026 8.356ZM40.2246 14.32C40.7846 14.32 41.2419 14.1333 41.5966 13.76C41.9606 13.3773 42.1426 12.8687 42.1426 12.234C42.1426 11.5993 41.9606 11.0953 41.5966 10.722C41.2419 10.3393 40.7846 10.148 40.2246 10.148C39.6646 10.148 39.2026 10.3393 38.8386 10.722C38.4839 11.0953 38.3066 11.5993 38.3066 12.234C38.3066 12.8687 38.4839 13.3773 38.8386 13.76C39.2026 14.1333 39.6646 14.32 40.2246 14.32ZM50.2686 8.356C50.9686 8.356 51.6033 8.51933 52.1726 8.846C52.7513 9.16333 53.2039 9.616 53.5306 10.204C53.8573 10.7827 54.0206 11.4593 54.0206 12.234C54.0206 13.0087 53.8573 13.69 53.5306 14.278C53.2039 14.8567 52.7513 15.3093 52.1726 15.636C51.6033 15.9533 50.9686 16.112 50.2686 16.112C49.3073 16.112 48.5513 15.8087 48.0006 15.202V18.716H45.8166V8.468H47.9026V9.336C48.4439 8.68267 49.2326 8.356 50.2686 8.356ZM49.8906 14.32C50.4506 14.32 50.9079 14.1333 51.2626 13.76C51.6266 13.3773 51.8086 12.8687 51.8086 12.234C51.8086 11.5993 51.6266 11.0953 51.2626 10.722C50.9079 10.3393 50.4506 10.148 49.8906 10.148C49.3306 10.148 48.8686 10.3393 48.5046 10.722C48.1499 11.0953 47.9726 11.5993 47.9726 12.234C47.9726 12.8687 48.1499 13.3773 48.5046 13.76C48.8686 14.1333 49.3306 14.32 49.8906 14.32ZM58.1846 16.112C57.3353 16.112 56.6726 15.888 56.1966 15.44C55.7206 14.9827 55.4826 14.3387 55.4826 13.508V5.612H57.6666V13.382C57.6666 13.6993 57.7459 13.9467 57.9046 14.124C58.0726 14.292 58.3059 14.376 58.6046 14.376C58.7166 14.376 58.8286 14.362 58.9406 14.334C59.0619 14.306 59.1553 14.2733 59.2206 14.236L59.3186 15.93C58.9546 16.0513 58.5766 16.112 58.1846 16.112ZM64.0481 14.362C64.4401 14.362 64.7854 14.306 65.0841 14.194C65.3921 14.0727 65.6768 13.886 65.9381 13.634L67.1001 14.894C66.3908 15.706 65.3548 16.112 63.9921 16.112C63.1428 16.112 62.3914 15.9487 61.7381 15.622C61.0848 15.286 60.5808 14.824 60.2261 14.236C59.8714 13.648 59.6941 12.9807 59.6941 12.234C59.6941 11.4967 59.8668 10.834 60.2121 10.246C60.5668 9.64867 61.0474 9.18667 61.6541 8.86C62.2701 8.524 62.9608 8.356 63.7261 8.356C64.4448 8.356 65.0981 8.51 65.6861 8.818C66.2741 9.11667 66.7408 9.55533 67.0861 10.134C67.4408 10.7033 67.6181 11.38 67.6181 12.164L62.0461 13.242C62.2048 13.6153 62.4521 13.8953 62.7881 14.082C63.1334 14.2687 63.5534 14.362 64.0481 14.362ZM63.7261 10.008C63.1754 10.008 62.7274 10.1853 62.3821 10.54C62.0368 10.8947 61.8548 11.3847 61.8361 12.01L65.5041 11.296C65.4014 10.904 65.1914 10.5913 64.8741 10.358C64.5568 10.1247 64.1741 10.008 63.7261 10.008ZM77.447 6.2C78.315 6.2 79.0663 6.34467 79.701 6.634C80.345 6.92333 80.8396 7.334 81.185 7.866C81.5303 8.398 81.703 9.028 81.703 9.756C81.703 10.4747 81.5303 11.1047 81.185 11.646C80.8396 12.178 80.345 12.5887 79.701 12.878C79.0663 13.158 78.315 13.298 77.447 13.298H75.473V16H73.205V6.2H77.447ZM77.321 11.45C78.0023 11.45 78.5203 11.3053 78.875 11.016C79.2296 10.7173 79.407 10.2973 79.407 9.756C79.407 9.20533 79.2296 8.78533 78.875 8.496C78.5203 8.19733 78.0023 8.048 77.321 8.048H75.473V11.45H77.321ZM86.7385 16.112C85.9452 16.112 85.2312 15.9487 84.5965 15.622C83.9712 15.286 83.4812 14.824 83.1265 14.236C82.7718 13.648 82.5945 12.9807 82.5945 12.234C82.5945 11.4873 82.7718 10.82 83.1265 10.232C83.4812 9.644 83.9712 9.18667 84.5965 8.86C85.2312 8.524 85.9452 8.356 86.7385 8.356C87.5318 8.356 88.2412 8.524 88.8665 8.86C89.4918 9.18667 89.9818 9.644 90.3365 10.232C90.6912 10.82 90.8685 11.4873 90.8685 12.234C90.8685 12.9807 90.6912 13.648 90.3365 14.236C89.9818 14.824 89.4918 15.286 88.8665 15.622C88.2412 15.9487 87.5318 16.112 86.7385 16.112ZM86.7385 14.32C87.2985 14.32 87.7558 14.1333 88.1105 13.76C88.4745 13.3773 88.6565 12.8687 88.6565 12.234C88.6565 11.5993 88.4745 11.0953 88.1105 10.722C87.7558 10.3393 87.2985 10.148 86.7385 10.148C86.1785 10.148 85.7165 10.3393 85.3525 10.722C84.9885 11.0953 84.8065 11.5993 84.8065 12.234C84.8065 12.8687 84.9885 13.3773 85.3525 13.76C85.7165 14.1333 86.1785 14.32 86.7385 14.32ZM100 5.612V16H97.9143V15.132C97.373 15.7853 96.589 16.112 95.5623 16.112C94.853 16.112 94.209 15.9533 93.6303 15.636C93.061 15.3187 92.613 14.866 92.2863 14.278C91.9596 13.69 91.7963 13.0087 91.7963 12.234C91.7963 11.4593 91.9596 10.778 92.2863 10.19C92.613 9.602 93.061 9.14933 93.6303 8.832C94.209 8.51467 94.853 8.356 95.5623 8.356C96.5236 8.356 97.275 8.65933 97.8163 9.266V5.612H100ZM95.9403 14.32C96.491 14.32 96.9483 14.1333 97.3123 13.76C97.6763 13.3773 97.8583 12.8687 97.8583 12.234C97.8583 11.5993 97.6763 11.0953 97.3123 10.722C96.9483 10.3393 96.491 10.148 95.9403 10.148C95.3803 10.148 94.9183 10.3393 94.5543 10.722C94.1903 11.0953 94.0083 11.5993 94.0083 12.234C94.0083 12.8687 94.1903 13.3773 94.5543 13.76C94.9183 14.1333 95.3803 14.32 95.9403 14.32ZM105.662 16.112C104.859 16.112 104.136 15.9487 103.492 15.622C102.857 15.286 102.358 14.824 101.994 14.236C101.639 13.648 101.462 12.9807 101.462 12.234C101.462 11.4873 101.639 10.82 101.994 10.232C102.358 9.644 102.857 9.18667 103.492 8.86C104.136 8.524 104.859 8.356 105.662 8.356C106.455 8.356 107.146 8.524 107.734 8.86C108.331 9.18667 108.765 9.658 109.036 10.274L107.342 11.184C106.95 10.4933 106.385 10.148 105.648 10.148C105.078 10.148 104.607 10.3347 104.234 10.708C103.86 11.0813 103.674 11.59 103.674 12.234C103.674 12.878 103.86 13.3867 104.234 13.76C104.607 14.1333 105.078 14.32 105.648 14.32C106.394 14.32 106.959 13.9747 107.342 13.284L109.036 14.208C108.765 14.8053 108.331 15.272 107.734 15.608C107.146 15.944 106.455 16.112 105.662 16.112ZM117.841 8.468V16H115.755V15.132C115.214 15.7853 114.43 16.112 113.403 16.112C112.694 16.112 112.05 15.9533 111.471 15.636C110.902 15.3187 110.454 14.866 110.127 14.278C109.801 13.69 109.637 13.0087 109.637 12.234C109.637 11.4593 109.801 10.778 110.127 10.19C110.454 9.602 110.902 9.14933 111.471 8.832C112.05 8.51467 112.694 8.356 113.403 8.356C114.365 8.356 115.116 8.65933 115.657 9.266V8.468H117.841ZM113.781 14.32C114.332 14.32 114.789 14.1333 115.153 13.76C115.517 13.3773 115.699 12.8687 115.699 12.234C115.699 11.5993 115.517 11.0953 115.153 10.722C114.789 10.3393 114.332 10.148 113.781 10.148C113.221 10.148 112.759 10.3393 112.395 10.722C112.031 11.0953 111.849 11.5993 111.849 12.234C111.849 12.8687 112.031 13.3773 112.395 13.76C112.759 14.1333 113.221 14.32 113.781 14.32ZM122.397 16.112C121.772 16.112 121.161 16.0373 120.563 15.888C119.966 15.7293 119.49 15.5333 119.135 15.3L119.863 13.732C120.199 13.9467 120.605 14.124 121.081 14.264C121.557 14.3947 122.024 14.46 122.481 14.46C123.405 14.46 123.867 14.2313 123.867 13.774C123.867 13.5593 123.741 13.4053 123.489 13.312C123.237 13.2187 122.85 13.1393 122.327 13.074C121.711 12.9807 121.203 12.8733 120.801 12.752C120.4 12.6307 120.05 12.416 119.751 12.108C119.462 11.8 119.317 11.3613 119.317 10.792C119.317 10.316 119.453 9.896 119.723 9.532C120.003 9.15867 120.405 8.86933 120.927 8.664C121.459 8.45867 122.085 8.356 122.803 8.356C123.335 8.356 123.863 8.41667 124.385 8.538C124.917 8.65 125.356 8.80867 125.701 9.014L124.973 10.568C124.311 10.1947 123.587 10.008 122.803 10.008C122.337 10.008 121.987 10.0733 121.753 10.204C121.52 10.3347 121.403 10.5027 121.403 10.708C121.403 10.9413 121.529 11.1047 121.781 11.198C122.033 11.2913 122.435 11.38 122.985 11.464C123.601 11.5667 124.105 11.6787 124.497 11.8C124.889 11.912 125.23 12.122 125.519 12.43C125.809 12.738 125.953 13.1673 125.953 13.718C125.953 14.1847 125.813 14.6 125.533 14.964C125.253 15.328 124.843 15.6127 124.301 15.818C123.769 16.014 123.135 16.112 122.397 16.112ZM131.837 15.636C131.622 15.7947 131.356 15.916 131.039 16C130.731 16.0747 130.409 16.112 130.073 16.112C129.168 16.112 128.472 15.8833 127.987 15.426C127.502 14.9687 127.259 14.2967 127.259 13.41V6.802H129.443V8.636H131.305V10.316H129.443V13.382C129.443 13.6993 129.522 13.9467 129.681 14.124C129.84 14.292 130.068 14.376 130.367 14.376C130.703 14.376 131.002 14.2827 131.263 14.096L131.837 15.636Z" fill="black"/>
</svg>
