<svg width="128" height="34" viewBox="0 0 128 34" fill="none" xmlns="http://www.w3.org/2000/svg">
<path d="M17.2377 0C13.8283 0 10.4956 0.997021 7.66087 2.86496C4.82623 4.733 2.61685 7.38807 1.3121 10.4944C0.00745117 13.6007 -0.333904 17.0189 0.331258 20.3165C0.996319 23.6142 2.63801 26.6433 5.04876 29.0208C7.45951 31.3983 10.531 33.0174 13.8748 33.6733C17.2185 34.3293 20.6844 33.9927 23.8341 32.7059C26.9839 31.4192 29.6761 29.2403 31.5702 26.4447C33.4643 23.6491 34.4752 20.3623 34.4752 17C34.4752 12.4913 32.6591 8.16731 29.4265 4.97922C26.1937 1.79103 21.8094 0 17.2377 0ZM25.1479 24.5164C25.0746 24.6365 24.9777 24.7411 24.8631 24.824C24.7484 24.9069 24.6181 24.9664 24.4798 24.9992C24.3417 25.0321 24.1982 25.0374 24.0578 25.0151C23.9174 24.9928 23.7829 24.9432 23.6622 24.8692C19.6176 22.427 14.5275 21.8843 8.5294 23.2275C8.39292 23.2596 8.25143 23.2647 8.11294 23.2423C7.97455 23.2201 7.84188 23.1709 7.72295 23.0978C7.60391 23.0246 7.50082 22.9288 7.41959 22.8159C7.33836 22.7031 7.28081 22.5755 7.25002 22.4405C7.21723 22.3052 7.21201 22.1647 7.23437 22.0272C7.25684 21.8898 7.30648 21.7581 7.38059 21.6396C7.4547 21.5211 7.55186 21.4183 7.66628 21.3369C7.78081 21.2555 7.91047 21.1971 8.04785 21.1652C14.61 19.6863 20.2504 20.324 24.7903 23.0647C25.0325 23.2107 25.2062 23.4455 25.2732 23.7176C25.3403 23.9897 25.2952 24.277 25.1479 24.5164ZM27.2528 19.8898C27.0606 20.1815 26.762 20.3891 26.419 20.4699C26.0759 20.5508 25.7145 20.4985 25.4093 20.324C20.1786 17.4464 14.0035 16.734 8.24049 18.3431C8.06119 18.4418 7.86173 18.4996 7.65686 18.5122C7.45189 18.5249 7.24671 18.4922 7.05628 18.4164C6.86585 18.3407 6.69507 18.224 6.55638 18.0747C6.41769 17.9254 6.3146 17.7473 6.25473 17.5537C6.19487 17.36 6.17972 17.1556 6.21041 16.9553C6.24109 16.7551 6.31681 16.5643 6.43203 16.3967C6.54725 16.2291 6.69908 16.0891 6.87628 15.9868C7.05357 15.8847 7.25173 15.8228 7.4563 15.8061C10.673 14.8929 14.0423 14.6228 17.3663 15.012C20.6903 15.401 23.902 16.4414 26.8126 18.0719C27.1083 18.2614 27.3188 18.5558 27.4007 18.8941C27.4826 19.2325 27.4297 19.5889 27.2528 19.8898ZM27.4316 15.0734C21.9288 11.8172 12.7253 11.5187 7.41509 13.1061C7.00644 13.2285 6.5652 13.1857 6.18855 12.9872C5.8119 12.7888 5.53061 12.4509 5.40656 12.0478C5.28251 11.6449 5.32584 11.2097 5.5271 10.8382C5.72826 10.4668 6.07092 10.1894 6.47956 10.0671C12.574 8.24901 22.6854 8.60177 29.0825 12.3328C29.4113 12.5649 29.6396 12.9106 29.7218 13.3012C29.8039 13.6916 29.734 14.0984 29.526 14.4404C29.3179 14.7824 28.9869 15.0346 28.5989 15.1469C28.2108 15.2592 27.794 15.2233 27.4316 15.0463V15.0734Z" fill="#1ED760"/>
<path d="M52.4606 14.3057C49.1583 13.5187 48.5667 12.949 48.5667 11.8365C48.5667 10.7239 49.5986 10.0184 51.1399 10.0184C52.7915 10.0795 54.3779 10.6755 55.6515 11.7144C55.6776 11.7274 55.7056 11.7342 55.7347 11.7342C55.7628 11.7342 55.7919 11.7274 55.817 11.7144C55.8711 11.7041 55.9202 11.6752 55.9543 11.6329L57.5779 9.38072C57.61 9.34012 57.628 9.28994 57.628 9.23826C57.628 9.18658 57.61 9.1364 57.5779 9.0958C55.7879 7.65085 53.5346 6.88129 51.2221 6.92498C47.6591 6.92498 45.1692 9.04153 45.1692 12.0535C45.1692 15.2961 47.3152 16.4494 51.0296 17.3312C54.1934 18.0503 54.7299 18.688 54.7299 19.7327C54.7299 20.7773 53.6429 21.6592 51.9782 21.6592C50.0107 21.6458 48.1254 20.8769 46.7235 19.5156C46.6704 19.498 46.6122 19.498 46.558 19.5156C46.5019 19.529 46.4497 19.5571 46.4066 19.597L44.5635 21.6999C44.5254 21.7402 44.5033 21.7937 44.5033 21.8492C44.5033 21.9047 44.5254 21.9581 44.5635 21.9984C46.5661 23.7676 49.1663 24.7353 51.8549 24.7119C55.6926 24.7119 58.1836 22.6361 58.1836 19.4342C58.1284 16.7614 56.4768 15.269 52.4606 14.3057Z" fill="black"/>
<path d="M66.8229 11.0902C66.0277 11.0853 65.2425 11.2602 64.5275 11.6012C63.8115 11.9422 63.1847 12.4404 62.6954 13.0575V11.5651C62.6924 11.5099 62.6673 11.4581 62.6262 11.4203C62.5851 11.3825 62.5309 11.3614 62.4757 11.3615H59.4904C59.4342 11.3614 59.3801 11.3825 59.339 11.4203C59.2979 11.4581 59.2738 11.5099 59.2698 11.5651V28.1173C59.2698 28.1749 59.2928 28.2302 59.334 28.2709C59.3761 28.3116 59.4312 28.3344 59.4904 28.3344H62.4477C62.5058 28.3344 62.562 28.3116 62.6031 28.2709C62.6442 28.2302 62.6683 28.1749 62.6683 28.1173V22.921C63.1737 23.5122 63.8065 23.9856 64.5205 24.3069C65.2335 24.6284 66.0106 24.7898 66.7948 24.7797C69.8905 24.7797 73.0273 22.4326 73.0273 17.9282C73.0273 13.4238 69.9176 11.0902 66.8229 11.0902ZM69.5736 17.8739C69.6258 18.3591 69.5746 18.8496 69.4242 19.3143C69.2738 19.779 69.0271 20.2078 68.7002 20.5738C68.3722 20.9397 67.9721 21.2347 67.5239 21.4403C67.0746 21.6458 66.5883 21.7573 66.0939 21.7678C65.5975 21.7526 65.1101 21.6386 64.6599 21.4326C64.2096 21.2265 63.8065 20.9327 63.4755 20.5688C63.1436 20.2049 62.8899 19.7785 62.7295 19.3154C62.57 18.8522 62.5068 18.3618 62.5439 17.8739C62.5088 17.3871 62.573 16.8982 62.7345 16.4366C62.8949 15.9751 63.1486 15.5503 63.4806 15.1879C63.8115 14.8256 64.2146 14.533 64.6629 14.3277C65.1121 14.1224 65.5985 14.0088 66.0939 13.9937C66.5943 14.0021 67.0877 14.1134 67.5419 14.3203C67.9962 14.5272 68.4023 14.8252 68.7333 15.1953C69.0652 15.5655 69.3149 15.9997 69.4663 16.4702C69.6177 16.9407 69.6689 17.4372 69.6147 17.9282L69.5736 17.8739Z" fill="black"/>
<path d="M81.0887 11.09C79.7139 11.1142 78.3771 11.5394 77.247 12.3119C76.1168 13.0844 75.2444 14.1696 74.739 15.4307C74.2335 16.6917 74.1182 18.0722 74.407 19.3978C74.6968 20.7235 75.3778 21.935 76.3635 22.8796C77.3503 23.8242 78.5988 24.4595 79.9505 24.7053C81.3023 24.9512 82.6982 24.7967 83.9618 24.2612C85.2243 23.7258 86.2993 22.8334 87.0484 21.6966C87.7985 20.5599 88.1896 19.2297 88.1736 17.8737C88.1605 16.9692 87.968 16.076 87.605 15.2453C87.2409 14.4145 86.7155 13.6626 86.0576 13.0325C85.3998 12.4023 84.6216 11.9064 83.7692 11.5731C82.9168 11.2398 82.0053 11.0756 81.0887 11.09ZM81.0887 21.849C80.5803 21.8424 80.0789 21.7346 79.6136 21.5319C79.1493 21.3292 78.7301 21.0359 78.3832 20.6696C78.0362 20.3034 77.7684 19.8717 77.595 19.4005C77.4215 18.9294 77.3463 18.4285 77.3743 17.928C77.3422 17.4343 77.4134 16.9395 77.5819 16.4739C77.7514 16.0084 78.0161 15.582 78.3591 15.221C78.702 14.86 79.1162 14.5721 79.5755 14.3749C80.0358 14.1778 80.5322 14.0757 81.0336 14.0749C81.543 14.0779 82.0474 14.1826 82.5147 14.3827C82.983 14.5827 83.4052 14.874 83.7562 15.239C84.1062 15.604 84.3789 16.0352 84.5564 16.5066C84.7339 16.9779 84.8131 17.4799 84.7891 17.9822C84.8212 18.4799 84.749 18.9789 84.5775 19.4478C84.406 19.9169 84.1383 20.3461 83.7913 20.7087C83.4433 21.0715 83.0252 21.3598 82.5599 21.5559C82.0945 21.7521 81.5941 21.8518 81.0887 21.849Z" fill="black"/>
<path d="M96.6893 11.3618H93.4291V8.07853C93.4291 8.02326 93.4081 7.96999 93.369 7.92959C93.3309 7.88928 93.2787 7.86494 93.2226 7.86145H90.2643C90.2061 7.86145 90.15 7.8843 90.1088 7.925C90.0677 7.9657 90.0447 8.02097 90.0447 8.07853V11.3618H88.5866C88.5595 11.3618 88.5324 11.3671 88.5074 11.3774C88.4823 11.3875 88.4592 11.4026 88.4402 11.4215C88.4211 11.4403 88.4061 11.4628 88.396 11.4875C88.385 11.5121 88.38 11.5387 88.38 11.5653V14.0753C88.38 14.1306 88.4011 14.1839 88.4392 14.2243C88.4783 14.2646 88.5304 14.2889 88.5866 14.2924H89.9624V20.7776C89.9624 23.3962 91.3373 24.7258 93.8964 24.7258C94.8591 24.7526 95.8108 24.5179 96.6481 24.0474C96.6812 24.0317 96.7103 24.0066 96.7294 23.9753C96.7494 23.944 96.7585 23.9078 96.7585 23.871V21.4831C96.7585 21.4462 96.7504 21.4096 96.7334 21.3766C96.7163 21.3436 96.6923 21.3149 96.6622 21.2932C96.6291 21.2727 96.591 21.2619 96.5519 21.2619C96.5128 21.2619 96.4747 21.2727 96.4416 21.2932C95.9041 21.5616 95.3104 21.701 94.7077 21.7002C93.7591 21.7002 93.3329 21.2796 93.3329 20.3435V14.2924H96.593C96.6511 14.2924 96.7073 14.2696 96.7484 14.2289C96.7895 14.1882 96.8126 14.1329 96.8126 14.0753V11.5653C96.8146 11.5232 96.8036 11.4816 96.7815 11.4454C96.7594 11.4093 96.7274 11.3803 96.6893 11.3618Z" fill="black"/>
<path d="M108.038 11.3756V10.9686C108.038 9.77474 108.492 9.24561 109.524 9.24561C110.098 9.25209 110.667 9.35774 111.203 9.55766C111.233 9.57113 111.266 9.57811 111.299 9.57811C111.332 9.57811 111.366 9.57113 111.396 9.55766C111.422 9.53661 111.444 9.50967 111.458 9.47905C111.472 9.44842 111.479 9.415 111.478 9.38128V6.89841C111.48 6.85082 111.467 6.80383 111.44 6.76463C111.412 6.72542 111.373 6.69619 111.326 6.68133C110.523 6.47292 109.694 6.38154 108.865 6.40997C106.113 6.40997 104.737 7.92955 104.737 10.7923V11.4163H103.361C103.307 11.4163 103.254 11.4378 103.216 11.476C103.177 11.5142 103.155 11.5659 103.155 11.6198V14.1434C103.155 14.1987 103.176 14.252 103.215 14.2924C103.253 14.3327 103.305 14.357 103.361 14.3605H104.737V24.3733C104.737 24.4273 104.759 24.4791 104.797 24.5172C104.836 24.5554 104.888 24.5768 104.944 24.5768H107.846C107.902 24.5769 107.956 24.5559 107.997 24.5181C108.038 24.4802 108.062 24.4285 108.066 24.3733V14.2927H110.818L115.055 24.2919C114.574 25.3502 114.092 25.5537 113.445 25.5537C112.875 25.5384 112.317 25.3846 111.822 25.106C111.794 25.0927 111.764 25.0858 111.733 25.0858C111.701 25.0858 111.671 25.0927 111.643 25.106C111.615 25.1138 111.59 25.1276 111.569 25.1464C111.547 25.1652 111.53 25.1885 111.519 25.2145L110.597 27.3716C110.577 27.4207 110.576 27.4754 110.593 27.5254C110.611 27.5753 110.647 27.6172 110.694 27.643C111.655 28.1869 112.749 28.4635 113.857 28.4435C116.032 28.4435 117.242 27.4395 118.315 24.7396L123.446 11.6605C123.463 11.6292 123.472 11.5943 123.472 11.5588C123.472 11.5234 123.463 11.4885 123.446 11.457C123.425 11.4307 123.398 11.4096 123.367 11.3956C123.336 11.3814 123.302 11.3746 123.268 11.3756H120.104C120.06 11.3784 120.018 11.3924 119.982 11.4162C119.946 11.44 119.916 11.4728 119.897 11.5113L116.747 20.398L113.349 11.5113C113.332 11.4709 113.304 11.4363 113.267 11.4121C113.23 11.3879 113.187 11.3752 113.142 11.3756H108.038Z" fill="black"/>
<path d="M101.463 11.3618H98.5053C98.3839 11.3618 98.2847 11.459 98.2847 11.5789V24.3051C98.2847 24.425 98.3839 24.5222 98.5053 24.5222H101.463C101.585 24.5222 101.683 24.425 101.683 24.3051V11.5789C101.683 11.459 101.585 11.3618 101.463 11.3618Z" fill="black"/>
<path d="M99.9906 5.55546C99.5684 5.55277 99.1543 5.67388 98.8023 5.90323C98.4493 6.13269 98.1745 6.4602 98.0111 6.84419C97.8476 7.22827 97.8035 7.65146 97.8837 8.06029C97.9649 8.46911 98.1665 8.84511 98.4644 9.14061C98.7622 9.436 99.1422 9.63762 99.5554 9.71992C99.9696 9.80213 100.399 9.76133 100.79 9.60261C101.18 9.44378 101.514 9.17423 101.749 8.82815C101.984 8.48208 102.11 8.07495 102.11 7.65844C102.111 7.3829 102.057 7.10975 101.952 6.85466C101.846 6.59957 101.69 6.36773 101.494 6.17219C101.296 5.97676 101.063 5.82163 100.805 5.71578C100.546 5.60993 100.27 5.55546 99.9906 5.55546Z" fill="black"/>
<path d="M125.909 15.4455C125.635 15.4473 125.365 15.3955 125.112 15.2933C124.859 15.1909 124.63 15.0401 124.436 14.8496C124.242 14.6589 124.09 14.4323 123.986 14.183C123.882 13.9336 123.83 13.6664 123.832 13.3969C123.832 12.8499 124.052 12.3254 124.444 11.9386C124.836 11.5519 125.369 11.3346 125.923 11.3346C126.196 11.3328 126.467 11.3846 126.72 11.4869C126.973 11.5892 127.203 11.7401 127.396 11.9306C127.589 12.1213 127.742 12.3478 127.846 12.5972C127.95 12.8465 128.002 13.1138 128 13.3834C128 13.9302 127.78 14.4548 127.388 14.8416C126.995 15.2282 126.464 15.4455 125.909 15.4455ZM125.909 11.5382C125.535 11.5355 125.169 11.6425 124.857 11.8457C124.545 12.0489 124.302 12.339 124.157 12.6792C124.013 13.0194 123.974 13.3943 124.046 13.7562C124.118 14.1179 124.299 14.4504 124.562 14.7112C124.827 14.972 125.164 15.1492 125.531 15.2205C125.898 15.2918 126.278 15.2538 126.623 15.1114C126.968 14.9691 127.262 14.7287 127.469 14.4211C127.674 14.1133 127.782 13.7521 127.78 13.3834C127.782 13.1416 127.735 12.902 127.643 12.6782C127.55 12.4545 127.413 12.251 127.241 12.0794C127.068 11.9079 126.863 11.7717 126.637 11.6788C126.411 11.5859 126.168 11.5382 125.923 11.5382H125.909ZM126.376 13.6003L126.955 14.4144H126.46L125.936 13.6683H125.483V14.4144H125.056V12.2572H126.033C126.542 12.2572 126.886 12.515 126.886 12.9356C126.889 13.0847 126.842 13.2306 126.753 13.3507C126.663 13.4709 126.536 13.5586 126.39 13.6003H126.376ZM126.019 12.6236H125.483V13.3019H126.019C126.294 13.3019 126.46 13.1798 126.46 12.9628C126.46 12.7457 126.308 12.6236 126.033 12.6236H126.019Z" fill="black"/>
</svg>
