<svg fill="none" height="20" viewBox="0 0 78 22" width="78" xmlns="http://www.w3.org/2000/svg">
    <mask fill="black" height="18" id="path-1-outside-1_301_454" maskUnits="userSpaceOnUse" width="18" x="0.00012207"
        y="2.00012">
        <rect fill="white" height="18" width="18" x="0.00012207" y="2.00012" />
        <path
            d="M9.00015 3.00012C7.41787 3.00012 5.87115 3.46931 4.55554 4.34834C3.23998 5.22742 2.21461 6.47686 1.60907 7.93864C1.00358 9.40047 0.845157 11.009 1.15386 12.5608C1.46252 14.1127 2.22443 15.5382 3.34326 16.657C4.46209 17.7758 5.88758 18.5377 7.43942 18.8464C8.99126 19.1551 10.5998 18.9967 12.0616 18.3912C13.5234 17.7856 14.7728 16.7603 15.6519 15.4447C16.5309 14.1291 17.0001 12.5824 17.0001 11.0001C17.0001 8.87838 16.1573 6.84356 14.657 5.34328C13.1567 3.84296 11.1219 3.00012 9.00015 3.00012ZM12.6713 14.5372C12.6373 14.5938 12.5923 14.643 12.5391 14.682C12.4859 14.721 12.4254 14.749 12.3613 14.7645C12.2971 14.7799 12.2305 14.7824 12.1654 14.7719C12.1002 14.7614 12.0378 14.7381 11.9818 14.7033C10.1047 13.554 7.74235 13.2986 4.95863 13.9307C4.89529 13.9458 4.82962 13.9482 4.76535 13.9377C4.70112 13.9272 4.63955 13.9041 4.58435 13.8697C4.52911 13.8352 4.48126 13.7901 4.44357 13.737C4.40587 13.6839 4.37916 13.6239 4.36487 13.5604C4.34965 13.4967 4.34723 13.4306 4.35761 13.3659C4.36803 13.3012 4.39107 13.2392 4.42546 13.1834C4.45986 13.1277 4.50495 13.0793 4.55806 13.041C4.61121 13.0027 4.67138 12.9752 4.73514 12.9602C7.78065 12.2643 10.3984 12.5644 12.5053 13.8541C12.6177 13.9228 12.6983 14.0333 12.7294 14.1613C12.7606 14.2894 12.7397 14.4246 12.6713 14.5372ZM13.6482 12.36C13.559 12.4973 13.4204 12.595 13.2612 12.633C13.102 12.6711 12.9343 12.6465 12.7926 12.5644C10.365 11.2102 7.49918 10.8749 4.82455 11.6322C4.74133 11.6786 4.64876 11.7058 4.55368 11.7118C4.45855 11.7177 4.36333 11.7023 4.27495 11.6667C4.18657 11.6311 4.10731 11.5761 4.04295 11.5058C3.97858 11.4356 3.93074 11.3518 3.90295 11.2607C3.87517 11.1695 3.86814 11.0733 3.88238 10.9791C3.89662 10.8849 3.93176 10.7951 3.98524 10.7162C4.03871 10.6373 4.10918 10.5715 4.19141 10.5233C4.2737 10.4753 4.36566 10.4462 4.4606 10.4383C5.95348 10.0085 7.51719 9.88144 9.05986 10.0646C10.6025 10.2477 12.0931 10.7372 13.4439 11.5045C13.5811 11.5937 13.6788 11.7323 13.7168 11.8915C13.7549 12.0507 13.7303 12.2185 13.6482 12.36ZM13.7312 10.0935C11.1773 8.56116 6.90598 8.42069 4.44147 9.16771C4.25182 9.22531 4.04704 9.20517 3.87224 9.11175C3.69743 9.01837 3.56689 8.85936 3.50932 8.6697C3.45175 8.48008 3.47185 8.2753 3.56526 8.10047C3.65862 7.92568 3.81765 7.79513 4.0073 7.73757C6.83574 6.88201 11.5285 7.04801 14.4974 8.80378C14.65 8.91302 14.7559 9.07569 14.7941 9.25949C14.8322 9.44324 14.7997 9.63464 14.7032 9.79562C14.6066 9.95656 14.453 10.0752 14.2729 10.1281C14.0928 10.1809 13.8994 10.164 13.7312 10.0807V10.0935Z" />
    </mask>
    <path
        d="M9.00015 3.00012C7.41787 3.00012 5.87115 3.46931 4.55554 4.34834C3.23998 5.22742 2.21461 6.47686 1.60907 7.93864C1.00358 9.40047 0.845157 11.009 1.15386 12.5608C1.46252 14.1127 2.22443 15.5382 3.34326 16.657C4.46209 17.7758 5.88758 18.5377 7.43942 18.8464C8.99126 19.1551 10.5998 18.9967 12.0616 18.3912C13.5234 17.7856 14.7728 16.7603 15.6519 15.4447C16.5309 14.1291 17.0001 12.5824 17.0001 11.0001C17.0001 8.87838 16.1573 6.84356 14.657 5.34328C13.1567 3.84296 11.1219 3.00012 9.00015 3.00012ZM12.6713 14.5372C12.6373 14.5938 12.5923 14.643 12.5391 14.682C12.4859 14.721 12.4254 14.749 12.3613 14.7645C12.2971 14.7799 12.2305 14.7824 12.1654 14.7719C12.1002 14.7614 12.0378 14.7381 11.9818 14.7033C10.1047 13.554 7.74235 13.2986 4.95863 13.9307C4.89529 13.9458 4.82962 13.9482 4.76535 13.9377C4.70112 13.9272 4.63955 13.9041 4.58435 13.8697C4.52911 13.8352 4.48126 13.7901 4.44357 13.737C4.40587 13.6839 4.37916 13.6239 4.36487 13.5604C4.34965 13.4967 4.34723 13.4306 4.35761 13.3659C4.36803 13.3012 4.39107 13.2392 4.42546 13.1834C4.45986 13.1277 4.50495 13.0793 4.55806 13.041C4.61121 13.0027 4.67138 12.9752 4.73514 12.9602C7.78065 12.2643 10.3984 12.5644 12.5053 13.8541C12.6177 13.9228 12.6983 14.0333 12.7294 14.1613C12.7606 14.2894 12.7397 14.4246 12.6713 14.5372ZM13.6482 12.36C13.559 12.4973 13.4204 12.595 13.2612 12.633C13.102 12.6711 12.9343 12.6465 12.7926 12.5644C10.365 11.2102 7.49918 10.8749 4.82455 11.6322C4.74133 11.6786 4.64876 11.7058 4.55368 11.7118C4.45855 11.7177 4.36333 11.7023 4.27495 11.6667C4.18657 11.6311 4.10731 11.5761 4.04295 11.5058C3.97858 11.4356 3.93074 11.3518 3.90295 11.2607C3.87517 11.1695 3.86814 11.0733 3.88238 10.9791C3.89662 10.8849 3.93176 10.7951 3.98524 10.7162C4.03871 10.6373 4.10918 10.5715 4.19141 10.5233C4.2737 10.4753 4.36566 10.4462 4.4606 10.4383C5.95348 10.0085 7.51719 9.88144 9.05986 10.0646C10.6025 10.2477 12.0931 10.7372 13.4439 11.5045C13.5811 11.5937 13.6788 11.7323 13.7168 11.8915C13.7549 12.0507 13.7303 12.2185 13.6482 12.36ZM13.7312 10.0935C11.1773 8.56116 6.90598 8.42069 4.44147 9.16771C4.25182 9.22531 4.04704 9.20517 3.87224 9.11175C3.69743 9.01837 3.56689 8.85936 3.50932 8.6697C3.45175 8.48008 3.47185 8.2753 3.56526 8.10047C3.65862 7.92568 3.81765 7.79513 4.0073 7.73757C6.83574 6.88201 11.5285 7.04801 14.4974 8.80378C14.65 8.91302 14.7559 9.07569 14.7941 9.25949C14.8322 9.44324 14.7997 9.63464 14.7032 9.79562C14.6066 9.95656 14.453 10.0752 14.2729 10.1281C14.0928 10.1809 13.8994 10.164 13.7312 10.0807V10.0935Z"
        fill="#1ED760" />
    <path
        d="M4.55554 4.34834L3.99998 3.51686L3.99995 3.51689L4.55554 4.34834ZM1.60907 7.93864L0.685202 7.55593L0.685187 7.55597L1.60907 7.93864ZM1.15386 12.5608L2.13465 12.3658L2.13464 12.3657L1.15386 12.5608ZM3.34326 16.657L2.63615 17.3641L2.63617 17.3641L3.34326 16.657ZM12.0616 18.3912L11.6789 17.4673L11.6789 17.4673L12.0616 18.3912ZM14.657 5.34328L13.9499 6.05039L14.657 5.34328ZM12.6713 14.5372L11.8164 14.0185L11.8145 14.0216L12.6713 14.5372ZM12.5391 14.682L13.1302 15.4886L13.1305 15.4884L12.5391 14.682ZM12.3613 14.7645L12.1273 13.7922L12.1271 13.7923L12.3613 14.7645ZM11.9818 14.7033L12.5097 13.854L12.5039 13.8504L11.9818 14.7033ZM4.95863 13.9307L4.73719 12.9555L4.72649 12.958L4.95863 13.9307ZM4.76535 13.9377L4.92682 12.9508L4.92623 12.9507L4.76535 13.9377ZM4.58435 13.8697L4.05511 14.7181L4.05531 14.7183L4.58435 13.8697ZM4.36487 13.5604L5.34058 13.3409L5.3375 13.328L4.36487 13.5604ZM4.35761 13.3659L3.37034 13.2068L3.37023 13.2075L4.35761 13.3659ZM4.42546 13.1834L3.57449 12.6582L3.57429 12.6586L4.42546 13.1834ZM4.55806 13.041L3.97334 12.2298L3.973 12.23L4.55806 13.041ZM4.73514 12.9602L4.51237 11.9853L4.50581 11.9869L4.73514 12.9602ZM12.5053 13.8541L11.9833 14.707L11.9836 14.7072L12.5053 13.8541ZM12.7294 14.1613L11.7577 14.3973L11.7577 14.3976L12.7294 14.1613ZM13.6482 12.36L14.4867 12.905L14.5005 12.8837L14.5133 12.8616L13.6482 12.36ZM12.7926 12.5644L13.2942 11.6992L13.287 11.6951L13.2798 11.691L12.7926 12.5644ZM4.82455 11.6322L4.55213 10.67L4.43951 10.7019L4.3373 10.7589L4.82455 11.6322ZM4.55368 11.7118L4.61623 12.7098L4.61627 12.7098L4.55368 11.7118ZM4.04295 11.5058L4.7804 10.8304L4.78018 10.8302L4.04295 11.5058ZM3.90295 11.2607L2.94639 11.5522L2.94643 11.5523L3.90295 11.2607ZM3.88238 10.9791L2.89361 10.8297L3.88238 10.9791ZM4.19141 10.5233L3.68696 9.65991L3.68638 9.66025L4.19141 10.5233ZM4.4606 10.4383L4.54339 11.4348L4.64208 11.4266L4.73724 11.3993L4.4606 10.4383ZM9.05986 10.0646L8.94197 11.0576L8.942 11.0576L9.05986 10.0646ZM13.4439 11.5045L13.9888 10.6661L13.9638 10.6498L13.9378 10.635L13.4439 11.5045ZM13.7168 11.8915L14.6895 11.6592L14.6895 11.6592L13.7168 11.8915ZM13.7312 10.0935L13.2167 10.951L14.7312 11.8597V10.0935H13.7312ZM4.44147 9.16771L4.1514 8.21071L4.15085 8.21087L4.44147 9.16771ZM3.87224 9.11175L4.34359 8.2298L4.34341 8.2297L3.87224 9.11175ZM3.50932 8.6697L4.46621 8.37925L4.46619 8.37918L3.50932 8.6697ZM3.56526 8.10047L4.44727 8.5717L4.44731 8.57162L3.56526 8.10047ZM4.0073 7.73757L3.71777 6.7804L3.71689 6.78067L4.0073 7.73757ZM14.4974 8.80378L15.0795 7.99065L15.044 7.96525L15.0064 7.94303L14.4974 8.80378ZM14.7941 9.25949L15.7732 9.05638L15.7732 9.05619L14.7941 9.25949ZM14.7032 9.79562L15.5606 10.3102L15.5607 10.3101L14.7032 9.79562ZM14.2729 10.1281L13.9914 9.16848L13.9913 9.16853L14.2729 10.1281ZM13.7312 10.0807L14.1749 9.18457L12.7312 8.4697V10.0807H13.7312ZM9.00015 2.00012C7.2201 2.00012 5.48004 2.52795 3.99998 3.51686L5.1111 5.17982C6.26226 4.41066 7.61565 4.00012 9.00015 4.00012V2.00012ZM3.99995 3.51689C2.51996 4.50584 1.36642 5.91145 0.685202 7.55593L2.53294 8.32135C3.06279 7.04227 3.96001 5.94899 5.11114 5.17979L3.99995 3.51689ZM0.685187 7.55597C0.00401407 9.20052 -0.174216 11.0101 0.173077 12.7559L2.13464 12.3657C1.86453 11.0079 2.00315 9.60043 2.53295 8.32132L0.685187 7.55597ZM0.17307 12.7559C0.52031 14.5018 1.37747 16.1054 2.63615 17.3641L4.05037 15.9499C3.07139 14.9709 2.40472 13.7236 2.13465 12.3658L0.17307 12.7559ZM2.63617 17.3641C3.89484 18.6227 5.4985 19.4799 7.24433 19.8272L7.63451 17.8656C6.27665 17.5955 5.02934 16.9288 4.05035 15.9499L2.63617 17.3641ZM7.24433 19.8272C8.99014 20.1744 10.7997 19.9962 12.4443 19.315L11.6789 17.4673C10.3998 17.9971 8.99238 18.1357 7.63451 17.8656L7.24433 19.8272ZM12.4443 19.315C14.0888 18.6338 15.4944 17.4803 16.4834 16.0003L14.8204 14.8891C14.0513 16.0402 12.958 16.9374 11.6789 17.4673L12.4443 19.315ZM16.4834 16.0003C17.4723 14.5202 18.0001 12.7802 18.0001 11.0001H16.0001C16.0001 12.3846 15.5896 13.738 14.8204 14.8891L16.4834 16.0003ZM18.0001 11.0001C18.0001 8.61316 17.0519 6.32399 15.3641 4.63618L13.9499 6.05039C15.2626 7.36313 16.0001 9.14359 16.0001 11.0001H18.0001ZM15.3641 4.63618C13.6762 2.94832 11.3871 2.00012 9.00015 2.00012V4.00012C10.8567 4.00012 12.6371 4.7376 13.9499 6.05039L15.3641 4.63618ZM11.8145 14.0216C11.849 13.9643 11.8944 13.9147 11.9477 13.8756L13.1305 15.4884C13.2903 15.3712 13.4256 15.2233 13.5281 15.0529L11.8145 14.0216ZM11.9481 13.8753C12.0018 13.836 12.0627 13.8078 12.1273 13.7922L12.5952 15.7367C12.7881 15.6903 12.97 15.606 13.1302 15.4886L11.9481 13.8753ZM12.1271 13.7923C12.192 13.7766 12.2591 13.7741 12.3247 13.7847L12.006 15.7592C12.2019 15.7908 12.4023 15.7832 12.5954 15.7367L12.1271 13.7923ZM12.3247 13.7847C12.3901 13.7953 12.453 13.8187 12.5097 13.854L11.4538 15.5525C11.6226 15.6574 11.8103 15.7276 12.006 15.7592L12.3247 13.7847ZM12.5039 13.8504C10.3426 12.5271 7.69452 12.284 4.7372 12.9555L5.18006 14.9059C7.79018 14.3132 9.86678 14.5809 11.4596 15.5561L12.5039 13.8504ZM4.72649 12.958C4.79186 12.9424 4.85998 12.9399 4.92682 12.9508L4.60388 14.9246C4.79926 14.9565 4.99872 14.9492 5.19077 14.9034L4.72649 12.958ZM4.92623 12.9507C4.99265 12.9615 5.05622 12.9854 5.1134 13.0211L4.05531 14.7183C4.22288 14.8227 4.4096 14.8929 4.60447 14.9247L4.92623 12.9507ZM5.1136 13.0212C5.17062 13.0568 5.22004 13.1033 5.25896 13.1581L3.62818 14.316C3.74249 14.477 3.8876 14.6136 4.05511 14.7181L5.1136 13.0212ZM5.25896 13.1581C5.29824 13.2135 5.32581 13.2757 5.34049 13.3409L3.38924 13.7798C3.4325 13.9721 3.5135 14.1544 3.62818 14.316L5.25896 13.1581ZM5.3375 13.328C5.35304 13.3931 5.35533 13.4598 5.34498 13.5243L3.37023 13.2075C3.33913 13.4013 3.34626 13.6003 3.39223 13.7927L5.3375 13.328ZM5.34487 13.525C5.33442 13.5898 5.31127 13.6522 5.27663 13.7083L3.57429 12.6586C3.47087 12.8263 3.40164 13.0126 3.37034 13.2068L5.34487 13.525ZM5.27644 13.7087C5.2416 13.7651 5.19621 13.8137 5.14311 13.852L3.973 12.23C3.8137 12.3449 3.67812 12.4903 3.57449 12.6582L5.27644 13.7087ZM5.14278 13.8522C5.08938 13.8907 5.02882 13.9184 4.96448 13.9336L4.50581 11.9869C4.31395 12.0321 4.13303 12.1147 3.97334 12.2298L5.14278 13.8522ZM4.95791 13.9351C7.81987 13.2811 10.1544 13.5875 11.9833 14.707L13.0274 13.0012C10.6423 11.5412 7.74144 11.2475 4.51237 11.9853L4.95791 13.9351ZM11.9836 14.7072C11.8703 14.6379 11.7891 14.5265 11.7577 14.3973L13.7012 13.9254C13.6076 13.5401 13.3651 13.2077 13.027 13.0009L11.9836 14.7072ZM11.7577 14.3976C11.7264 14.2685 11.7474 14.1322 11.8164 14.0185L13.5262 15.056C13.7319 14.717 13.7948 14.3103 13.7011 13.9251L11.7577 14.3976ZM12.8097 11.8151C12.8604 11.7372 12.9389 11.6819 13.0289 11.6604L13.4935 13.6057C13.902 13.5081 14.2576 13.2574 14.4867 12.905L12.8097 11.8151ZM13.0289 11.6604C13.1192 11.6388 13.2141 11.6528 13.2942 11.6992L12.2911 13.4295C12.6544 13.6401 13.0848 13.7033 13.4935 13.6057L13.0289 11.6604ZM13.2798 11.691C10.6208 10.2078 7.48172 9.84057 4.55213 10.67L5.09696 12.5944C7.51664 11.9093 10.1093 12.2126 12.3055 13.4377L13.2798 11.691ZM4.3373 10.7589C4.38463 10.7325 4.43719 10.7171 4.4911 10.7137L4.61627 12.7098C4.86034 12.6945 5.09803 12.6247 5.3118 12.5054L4.3373 10.7589ZM4.49113 10.7137C4.54492 10.7103 4.59884 10.7191 4.64888 10.7392L3.90102 12.5941C4.12782 12.6856 4.37218 12.7251 4.61623 12.7098L4.49113 10.7137ZM4.64888 10.7392C4.69882 10.7594 4.74382 10.7905 4.7804 10.8304L3.3055 12.1812C3.47081 12.3617 3.67432 12.5027 3.90102 12.5941L4.64888 10.7392ZM4.78018 10.8302C4.8167 10.8701 4.84376 10.9175 4.85948 10.969L2.94643 11.5523C3.01772 11.7861 3.14046 12.0012 3.30572 12.1815L4.78018 10.8302ZM4.85952 10.9692C4.87523 11.0207 4.87922 11.0752 4.87115 11.1286L2.89361 10.8297C2.85706 11.0715 2.87511 11.3183 2.94639 11.5522L4.85952 10.9692ZM4.87115 11.1286C4.86309 11.1819 4.84318 11.2328 4.81293 11.2774L3.15754 10.155C3.02034 10.3574 2.93016 10.5879 2.89361 10.8297L4.87115 11.1286ZM4.81293 11.2774C4.78251 11.3223 4.74262 11.3594 4.69645 11.3864L3.68638 9.66025C3.47573 9.7835 3.29492 9.95241 3.15754 10.155L4.81293 11.2774ZM4.69587 11.3868C4.64974 11.4137 4.5977 11.4303 4.54339 11.4348L4.37782 9.44171C4.13362 9.46199 3.89765 9.53681 3.68696 9.65991L4.69587 11.3868ZM4.73724 11.3993C6.10207 11.0064 7.53165 10.8902 8.94197 11.0576L9.17775 9.07155C7.50273 8.8727 5.80488 9.01069 4.18397 9.4773L4.73724 11.3993ZM8.942 11.0576C10.3524 11.225 11.7151 11.6726 12.95 12.374L13.9378 10.635C12.4711 9.8019 10.8527 9.27035 9.17772 9.07155L8.942 11.0576ZM12.8989 12.343C12.821 12.2923 12.7657 12.2138 12.7442 12.1238L14.6895 11.6592C14.5919 11.2508 14.3413 10.8951 13.9888 10.6661L12.8989 12.343ZM12.7442 12.1237C12.7227 12.0337 12.7365 11.9387 12.7831 11.8584L14.5133 12.8616C14.724 12.4982 14.787 12.0677 14.6895 11.6592L12.7442 12.1237ZM14.2457 9.23601C12.7893 8.36217 10.9149 7.91916 9.1312 7.77892C7.34302 7.63832 5.52958 7.79296 4.1514 8.21071L4.73155 10.1247C5.81787 9.79544 7.37234 9.6468 8.97443 9.77277C10.581 9.89909 12.1192 10.2925 13.2167 10.951L14.2457 9.23601ZM4.15085 8.21087C4.21511 8.19135 4.28444 8.19819 4.34359 8.2298L3.40089 9.99369C3.80965 10.2122 4.28853 10.2593 4.7321 10.1245L4.15085 8.21087ZM4.34341 8.2297C4.40259 8.26132 4.44675 8.31514 4.46621 8.37925L2.55243 8.96015C2.68703 9.40359 2.99227 9.77542 3.40107 9.99379L4.34341 8.2297ZM4.46619 8.37918C4.48566 8.44333 4.47886 8.51256 4.44727 8.5717L2.68325 7.62924C2.46484 8.03803 2.41783 8.51683 2.55245 8.96022L4.46619 8.37918ZM4.44731 8.57162C4.41567 8.63086 4.36185 8.67501 4.2977 8.69447L3.71689 6.78067C3.27344 6.91525 2.90157 7.22051 2.6832 7.62932L4.44731 8.57162ZM4.29683 8.69474C5.56753 8.31037 7.31858 8.14205 9.11877 8.28815C10.9215 8.43446 12.6755 8.88811 13.9883 9.66453L15.0064 7.94303C13.3504 6.96368 11.2735 6.45645 9.28055 6.2947C7.28504 6.13275 5.27551 6.30921 3.71777 6.7804L4.29683 8.69474ZM13.9153 9.6169C13.8637 9.57996 13.8278 9.52495 13.8149 9.46279L15.7732 9.05619C15.6839 8.62644 15.4363 8.24608 15.0795 7.99065L13.9153 9.6169ZM13.8149 9.4626C13.802 9.40036 13.813 9.33561 13.8456 9.28119L15.5607 10.3101C15.7865 9.93368 15.8624 9.48612 15.7732 9.05638L13.8149 9.4626ZM13.8457 9.28108C13.8784 9.22656 13.9304 9.18637 13.9914 9.16848L14.5544 11.0876C14.9755 10.9641 15.3348 10.6866 15.5606 10.3102L13.8457 9.28108ZM13.9913 9.16853C14.0523 9.15061 14.1179 9.15633 14.1749 9.18457L13.2874 10.9769C13.6809 11.1717 14.1333 11.2112 14.5545 11.0876L13.9913 9.16853ZM12.7312 10.0807V10.0935H14.7312V10.0807H12.7312Z"
        fill="black" mask="url(#path-1-outside-1_301_454)" />
    <path
        d="M29.382 16.168C28.6073 16.168 27.856 16.0653 27.128 15.86C26.4093 15.6453 25.8307 15.37 25.392 15.034L26.162 13.326C26.582 13.634 27.0813 13.8813 27.66 14.068C28.2387 14.2547 28.8173 14.348 29.396 14.348C30.04 14.348 30.516 14.2547 30.824 14.068C31.132 13.872 31.286 13.6153 31.286 13.298C31.286 13.0647 31.1927 12.8733 31.006 12.724C30.8287 12.5653 30.5953 12.4393 30.306 12.346C30.026 12.2527 29.6433 12.15 29.158 12.038C28.4113 11.8607 27.8 11.6833 27.324 11.506C26.848 11.3287 26.4373 11.044 26.092 10.652C25.756 10.26 25.588 9.73733 25.588 9.084C25.588 8.51467 25.742 8.00133 26.05 7.544C26.358 7.07733 26.82 6.70867 27.436 6.438C28.0613 6.16733 28.822 6.032 29.718 6.032C30.3433 6.032 30.9547 6.10667 31.552 6.256C32.1493 6.40533 32.672 6.62 33.12 6.9L32.42 8.622C31.5147 8.10867 30.6093 7.852 29.704 7.852C29.0693 7.852 28.598 7.95467 28.29 8.16C27.9913 8.36533 27.842 8.636 27.842 8.972C27.842 9.308 28.0147 9.56 28.36 9.728C28.7147 9.88667 29.2513 10.0453 29.97 10.204C30.7167 10.3813 31.328 10.5587 31.804 10.736C32.28 10.9133 32.686 11.1933 33.022 11.576C33.3673 11.9587 33.54 12.4767 33.54 13.13C33.54 13.69 33.3813 14.2033 33.064 14.67C32.756 15.1273 32.2893 15.4913 31.664 15.762C31.0387 16.0327 30.278 16.168 29.382 16.168ZM39.3877 8.356C40.0877 8.356 40.7224 8.51933 41.2917 8.846C41.8704 9.16333 42.3231 9.616 42.6497 10.204C42.9764 10.7827 43.1397 11.4593 43.1397 12.234C43.1397 13.0087 42.9764 13.69 42.6497 14.278C42.3231 14.8567 41.8704 15.3093 41.2917 15.636C40.7224 15.9533 40.0877 16.112 39.3877 16.112C38.4264 16.112 37.6704 15.8087 37.1197 15.202V18.716H34.9357V8.468H37.0217V9.336C37.5631 8.68267 38.3517 8.356 39.3877 8.356ZM39.0097 14.32C39.5697 14.32 40.0271 14.1333 40.3817 13.76C40.7457 13.3773 40.9277 12.8687 40.9277 12.234C40.9277 11.5993 40.7457 11.0953 40.3817 10.722C40.0271 10.3393 39.5697 10.148 39.0097 10.148C38.4497 10.148 37.9877 10.3393 37.6237 10.722C37.2691 11.0953 37.0917 11.5993 37.0917 12.234C37.0917 12.8687 37.2691 13.3773 37.6237 13.76C37.9877 14.1333 38.4497 14.32 39.0097 14.32ZM48.1858 16.112C47.3924 16.112 46.6784 15.9487 46.0438 15.622C45.4184 15.286 44.9284 14.824 44.5738 14.236C44.2191 13.648 44.0418 12.9807 44.0418 12.234C44.0418 11.4873 44.2191 10.82 44.5738 10.232C44.9284 9.644 45.4184 9.18667 46.0438 8.86C46.6784 8.524 47.3924 8.356 48.1858 8.356C48.9791 8.356 49.6884 8.524 50.3138 8.86C50.9391 9.18667 51.4291 9.644 51.7838 10.232C52.1384 10.82 52.3158 11.4873 52.3158 12.234C52.3158 12.9807 52.1384 13.648 51.7838 14.236C51.4291 14.824 50.9391 15.286 50.3138 15.622C49.6884 15.9487 48.9791 16.112 48.1858 16.112ZM48.1858 14.32C48.7458 14.32 49.2031 14.1333 49.5578 13.76C49.9218 13.3773 50.1038 12.8687 50.1038 12.234C50.1038 11.5993 49.9218 11.0953 49.5578 10.722C49.2031 10.3393 48.7458 10.148 48.1858 10.148C47.6258 10.148 47.1638 10.3393 46.7998 10.722C46.4358 11.0953 46.2538 11.5993 46.2538 12.234C46.2538 12.8687 46.4358 13.3773 46.7998 13.76C47.1638 14.1333 47.6258 14.32 48.1858 14.32ZM58.3116 15.636C58.0969 15.7947 57.8309 15.916 57.5136 16C57.2056 16.0747 56.8836 16.112 56.5476 16.112C55.6422 16.112 54.9469 15.8833 54.4616 15.426C53.9762 14.9687 53.7336 14.2967 53.7336 13.41V6.802H55.9176V8.636H57.7796V10.316H55.9176V13.382C55.9176 13.6993 55.9969 13.9467 56.1556 14.124C56.3142 14.292 56.5429 14.376 56.8416 14.376C57.1776 14.376 57.4762 14.2827 57.7376 14.096L58.3116 15.636ZM59.5451 8.468H61.7291V16H59.5451V8.468ZM60.6371 7.418C60.2358 7.418 59.9091 7.30133 59.6571 7.068C59.4051 6.83467 59.2791 6.54533 59.2791 6.2C59.2791 5.85467 59.4051 5.56533 59.6571 5.332C59.9091 5.09867 60.2358 4.982 60.6371 4.982C61.0384 4.982 61.3651 5.094 61.6171 5.318C61.8691 5.542 61.9951 5.822 61.9951 6.158C61.9951 6.522 61.8691 6.82533 61.6171 7.068C61.3651 7.30133 61.0384 7.418 60.6371 7.418ZM65.884 8.636H67.816V10.316H65.94V16H63.756V8.3C63.756 7.44133 64.008 6.76 64.512 6.256C65.0254 5.752 65.744 5.5 66.668 5.5C66.9947 5.5 67.3027 5.53733 67.592 5.612C67.8907 5.67733 68.138 5.77533 68.334 5.906L67.76 7.488C67.508 7.31067 67.214 7.222 66.878 7.222C66.2154 7.222 65.884 7.586 65.884 8.314V8.636ZM76.4983 8.468V14.74C76.4983 16.1213 76.1483 17.148 75.4483 17.82C74.7483 18.492 73.731 18.828 72.3963 18.828C71.687 18.828 71.015 18.7393 70.3803 18.562C69.755 18.3847 69.2277 18.128 68.7983 17.792L69.6663 16.224C69.9837 16.4853 70.371 16.6907 70.8283 16.84C71.2857 16.9893 71.7477 17.064 72.2143 17.064C72.9423 17.064 73.4743 16.896 73.8103 16.56C74.1463 16.224 74.3143 15.7107 74.3143 15.02V14.768C74.0343 15.048 73.703 15.2627 73.3203 15.412C72.9377 15.5613 72.527 15.636 72.0883 15.636C71.099 15.636 70.315 15.356 69.7363 14.796C69.1577 14.2267 68.8683 13.3773 68.8683 12.248V8.468H71.0523V11.926C71.0523 13.1487 71.561 13.76 72.5783 13.76C73.101 13.76 73.521 13.592 73.8383 13.256C74.1557 12.9107 74.3143 12.402 74.3143 11.73V8.468H76.4983Z"
        fill="black" />
</svg>
