<svg width="16" height="16" viewBox="0 0 16 16" fill="none" xmlns="http://www.w3.org/2000/svg">
<path opacity="0.3" d="M14.6668 7.99992C14.6668 11.6766 11.6762 14.6666 8.00016 14.6666C4.32416 14.6666 1.3335 11.6766 1.3335 7.99992C1.3335 4.32392 4.32416 1.33325 8.00016 1.33325C11.6762 1.33325 14.6668 4.32392 14.6668 7.99992" stroke="black" stroke-opacity="0.4" stroke-width="1.5"/>
<path d="M10.8141 7.0384C10.8141 7.16574 10.7654 7.29374 10.6681 7.39107L8.35472 9.71574C8.26072 9.80974 8.13338 9.8624 8.00005 9.8624C7.86738 9.8624 7.74005 9.80974 7.64605 9.71574L5.33138 7.39107C5.13671 7.19574 5.13671 6.87974 5.33271 6.6844C5.52871 6.48974 5.84538 6.4904 6.04005 6.68574L8.00005 8.6544L9.96005 6.68574C10.1547 6.4904 10.4707 6.48974 10.6667 6.6844C10.7654 6.78174 10.8141 6.9104 10.8141 7.0384Z" fill="black"/>
</svg>
