<svg width="31" height="31" viewBox="0 0 31 31" fill="none" xmlns="http://www.w3.org/2000/svg">
<g clip-path="url(#clip0_301_4482)">
<path d="M13.5601 9.97168V14.5738V16.4133V21.0154H17.3564V16.4133V14.5738V9.97168H13.5601Z" fill="white"/>
<path d="M2.17158 16.3564C3.2199 16.3564 4.06972 15.5066 4.06972 14.4583C4.06972 13.41 3.2199 12.5602 2.17158 12.5602C1.12327 12.5602 0.273438 13.41 0.273438 14.4583C0.273438 15.5066 1.12327 16.3564 2.17158 16.3564Z" fill="white"/>
<path d="M2.17158 18.4265C3.2199 18.4265 4.06972 17.5767 4.06972 16.5284C4.06972 15.4801 3.2199 14.6302 2.17158 14.6302C1.12327 14.6302 0.273438 15.4801 0.273438 16.5284C0.273438 17.5767 1.12327 18.4265 2.17158 18.4265Z" fill="white"/>
<path d="M4.06972 14.4583H0.273438V16.5289H4.06972V14.4583Z" fill="white"/>
<path d="M28.7453 18.4265C29.7937 18.4265 30.6434 17.5767 30.6434 16.5284C30.6434 15.4801 29.7937 14.6302 28.7453 14.6302C27.697 14.6302 26.8472 15.4801 26.8472 16.5284C26.8472 17.5767 27.697 18.4265 28.7453 18.4265Z" fill="white"/>
<path d="M28.7453 16.3564C29.7937 16.3564 30.6434 15.5066 30.6434 14.4583C30.6434 13.41 29.7937 12.5602 28.7453 12.5602C27.697 12.5602 26.8472 13.41 26.8472 14.4583C26.8472 15.5066 27.697 16.3564 28.7453 16.3564Z" fill="white"/>
<path d="M26.8472 16.5289H30.6434V14.4583H26.8472V16.5289Z" fill="white"/>
<path d="M8.72846 22.5684C9.77674 22.5684 10.6266 21.7185 10.6266 20.6702C10.6266 19.6219 9.77674 18.7721 8.72846 18.7721C7.68014 18.7721 6.83032 19.6219 6.83032 20.6702C6.83032 21.7185 7.68014 22.5684 8.72846 22.5684Z" fill="white"/>
<path d="M8.72846 24.6392C9.77674 24.6392 10.6266 23.7894 10.6266 22.7411C10.6266 21.6928 9.77674 20.8429 8.72846 20.8429C7.68014 20.8429 6.83032 21.6928 6.83032 22.7411C6.83032 23.7894 7.68014 24.6392 8.72846 24.6392Z" fill="white"/>
<path d="M10.6266 20.6702H6.83032V22.7409H10.6266V20.6702Z" fill="white"/>
<path d="M8.72846 10.1438C9.77674 10.1438 10.6266 9.29395 10.6266 8.24567C10.6266 7.19736 9.77674 6.34753 8.72846 6.34753C7.68014 6.34753 6.83032 7.19736 6.83032 8.24567C6.83032 9.29395 7.68014 10.1438 8.72846 10.1438Z" fill="white"/>
<path d="M8.72846 16.8732C9.77674 16.8732 10.6266 16.0234 10.6266 14.975C10.6266 13.9267 9.77674 13.0769 8.72846 13.0769C7.68014 13.0769 6.83032 13.9267 6.83032 14.975C6.83032 16.0234 7.68014 16.8732 8.72846 16.8732Z" fill="white"/>
<path d="M10.6266 8.24561H6.83032V15.0185H10.6266V8.24561Z" fill="white"/>
<path d="M22.1884 12.2153C23.2367 12.2153 24.0865 11.3655 24.0865 10.3172C24.0865 9.26889 23.2367 8.41907 22.1884 8.41907C21.1401 8.41907 20.2903 9.26889 20.2903 10.3172C20.2903 11.3655 21.1401 12.2153 22.1884 12.2153Z" fill="white"/>
<path d="M22.1884 10.1438C23.2367 10.1438 24.0865 9.29395 24.0865 8.24567C24.0865 7.19736 23.2367 6.34753 22.1884 6.34753C21.1401 6.34753 20.2903 7.19736 20.2903 8.24567C20.2903 9.29395 21.1401 10.1438 22.1884 10.1438Z" fill="white"/>
<path d="M20.2893 10.3163H24.0856V8.24561H20.2893V10.3163Z" fill="white"/>
<path d="M15.4582 6.17541C16.5065 6.17541 17.3564 5.3256 17.3564 4.27728C17.3564 3.22897 16.5065 2.37915 15.4582 2.37915C14.4099 2.37915 13.5601 3.22897 13.5601 4.27728C13.5601 5.3256 14.4099 6.17541 15.4582 6.17541Z" fill="white"/>
<path d="M15.4582 4.10461C16.5065 4.10461 17.3564 3.25479 17.3564 2.20648C17.3564 1.15817 16.5065 0.30835 15.4582 0.30835C14.4099 0.30835 13.5601 1.15817 13.5601 2.20648C13.5601 3.25479 14.4099 4.10461 15.4582 4.10461Z" fill="white"/>
<path d="M13.5601 4.27712H17.3564V2.20642H13.5601V4.27712Z" fill="white"/>
<path d="M15.4582 30.6783C16.5065 30.6783 17.3564 29.8285 17.3564 28.7802C17.3564 27.7319 16.5065 26.8821 15.4582 26.8821C14.4099 26.8821 13.5601 27.7319 13.5601 28.7802C13.5601 29.8285 14.4099 30.6783 15.4582 30.6783Z" fill="white"/>
<path d="M15.4582 28.6082C16.5065 28.6082 17.3564 27.7583 17.3564 26.71C17.3564 25.6617 16.5065 24.8119 15.4582 24.8119C14.4099 24.8119 13.5601 25.6617 13.5601 26.71C13.5601 27.7583 14.4099 28.6082 15.4582 28.6082Z" fill="white"/>
<path d="M13.5601 28.7808H17.3564V26.7101H13.5601V28.7808Z" fill="white"/>
<path d="M22.1884 24.6392C23.2367 24.6392 24.0865 23.7894 24.0865 22.7411C24.0865 21.6928 23.2367 20.8429 22.1884 20.8429C21.1401 20.8429 20.2903 21.6928 20.2903 22.7411C20.2903 23.7894 21.1401 24.6392 22.1884 24.6392Z" fill="white"/>
<path d="M22.1884 17.9098C23.2367 17.9098 24.0865 17.06 24.0865 16.0117C24.0865 14.9633 23.2367 14.1135 22.1884 14.1135C21.1401 14.1135 20.2903 14.9633 20.2903 16.0117C20.2903 17.06 21.1401 17.9098 22.1884 17.9098Z" fill="white"/>
<path d="M20.2893 22.7407H24.0856V16.0109H20.2893V22.7407Z" fill="white"/>
<path d="M15.4582 11.8699C16.5065 11.8699 17.3564 11.02 17.3564 9.97178C17.3564 8.92347 16.5065 8.07361 15.4582 8.07361C14.4099 8.07361 13.5601 8.92347 13.5601 9.97178C13.5601 11.02 14.4099 11.8699 15.4582 11.8699Z" fill="white"/>
<path d="M15.4582 22.9138C16.5065 22.9138 17.3564 22.064 17.3564 21.0157C17.3564 19.9674 16.5065 19.1176 15.4582 19.1176C14.4099 19.1176 13.5601 19.9674 13.5601 21.0157C13.5601 22.064 14.4099 22.9138 15.4582 22.9138Z" fill="white"/>
</g>
<defs>
<clipPath id="clip0_301_4482">
<rect width="30.37" height="30.37" fill="white" transform="translate(0.273438 0.30835)"/>
</clipPath>
</defs>
</svg>
