<svg width="69" height="22" viewBox="0 0 69 22" fill="none" xmlns="http://www.w3.org/2000/svg">
<path d="M15.6094 7.92631C13.8625 9.51068 12.1698 10.8919 10.5448 12.5982C8.16151 15.0898 5.94067 17.7305 3.65213 20.3034C3.0563 20.9669 2.58234 21.9419 1.44484 21.4274C0.700047 21.0888 0.700047 20.2357 1.41776 18.8274C1.83755 18.0149 2.31151 17.2294 2.86671 16.4982C6.00838 12.3409 9.7188 8.75235 13.998 5.77318C14.7292 5.27214 15.5282 4.81172 16.3678 4.52735C17.9657 3.99922 19.198 4.92006 19.049 6.59922C18.9542 7.68256 18.575 8.76589 18.25 9.82214C17.6271 11.8263 16.9094 13.7898 16.3136 15.8076C16.1511 16.3628 15.948 17.3242 16.2865 17.744C16.8688 18.3669 18.6021 16.5794 19.374 15.7534C21.7438 13.2482 24.0323 10.6617 26.375 8.12943C28.7178 5.5836 31.3042 3.29506 34.324 1.57527C35.2042 1.07422 36.1521 0.640889 37.1271 0.383597C38.698 -0.0361945 39.9438 1.00651 39.8355 2.64506C39.7813 3.43047 39.5511 4.24297 39.2125 4.96068C38.3459 6.76172 37.3573 8.49506 36.45 10.269C35.5021 12.1242 34.5136 13.9794 34.1615 16.4982C34.825 15.9024 35.2584 15.5638 35.624 15.1576C38.0073 12.5846 40.3365 9.9711 42.7469 7.42527C44.9407 5.10964 47.2834 2.94297 50.1136 1.42631C51.1834 0.857556 52.3886 0.410683 53.5803 0.248183C55.2323 0.0315159 56.3698 1.29089 56.0448 2.92943C55.8011 4.13464 55.2865 5.29922 54.7719 6.40964C53.7834 8.5086 52.7001 10.5534 51.6844 12.6253C51.4542 13.0857 50.7501 14.169 51.3865 14.2773C52.0636 13.5596 52.7407 12.8284 53.4313 12.1242C55.2594 10.2148 57.0469 8.27839 58.9292 6.42318C60.6219 4.74402 62.5042 3.29506 64.9146 2.75339C66.9459 2.29297 68.3813 3.55235 68.0563 5.61068C67.8938 6.59922 67.5688 7.61485 67.1084 8.5086C65.1042 12.4492 63.0323 16.3492 60.974 20.2628C60.7438 20.6826 60.4865 21.1294 60.1209 21.4274C59.7823 21.6982 59.2136 22.0096 58.8886 21.8878C58.5636 21.7659 57.9678 21.3326 58.0355 20.4794C58.1032 19.694 58.3334 19.1117 58.6448 18.4076C60.0803 15.1576 61.5969 11.9482 63.0865 8.72527C63.4928 7.8586 63.9261 7.00547 64.3459 6.13881C64.4948 5.88151 64.4542 5.84089 64.373 5.7461C63.9803 5.54297 62.8969 6.36902 62.4501 6.80235C59.8907 9.26693 57.3719 11.7586 54.8667 14.2638C53.8782 15.2523 52.9709 16.3357 51.9823 17.3242C51.1698 18.1367 50.1678 18.5971 49.0438 18.0555C47.9198 17.5138 47.6084 16.3763 47.798 15.293C48.0688 13.7086 48.4073 12.0971 49.0573 10.6482C50.0323 8.44089 51.3053 6.35548 52.4428 4.21589C52.6323 3.85027 52.7948 3.45756 53.1063 2.75339C52.4021 3.05131 51.9688 3.17318 51.5761 3.38985C49.0032 4.82527 46.823 6.76172 44.8594 8.91485C42.5032 11.5013 40.2959 14.2232 37.9667 16.8503C37.0459 17.893 36.098 18.9628 35.0011 19.8023C32.875 21.4544 30.749 20.5742 30.4782 17.9065C30.3563 16.6471 30.5459 15.3201 30.8438 14.0878C31.5886 10.9596 33.2813 8.23777 34.8792 5.48881C35.2178 4.90651 35.5563 4.32422 35.773 3.66068C33.1594 4.62214 31.0469 6.27422 29.1375 8.14297C26.1719 11.0409 23.3688 14.1148 20.4709 17.0669C19.7261 17.8253 18.9 18.5565 17.9928 19.1117C16.449 20.0461 14.7698 19.3284 14.3907 17.568C14.1063 16.2815 14.0928 14.8596 14.2959 13.5596C14.5803 11.6503 15.8261 8.14297 15.7719 7.92631C15.7719 7.72318 15.6094 7.92631 15.6094 7.92631Z" fill="#81ADC8"/>
</svg>
