<svg width="31" height="31" viewBox="0 0 31 31" fill="none" xmlns="http://www.w3.org/2000/svg">
<g clip-path="url(#clip0_301_4511)">
<path d="M15.4827 0.30835C12.4793 0.30835 9.54341 1.19892 7.04623 2.86743C4.54914 4.53603 2.60285 6.90763 1.45347 9.68227C0.304171 12.457 0.0034641 15.5102 0.589419 18.4558C1.17529 21.4014 2.62149 24.1071 4.74517 26.2308C6.86885 28.3544 9.5746 29.8006 12.5202 30.3865C15.4658 30.9724 18.519 30.6718 21.2936 29.5224C24.0684 28.3731 26.4399 26.4268 28.1085 23.9297C29.777 21.4325 30.6676 18.4967 30.6676 15.4934C30.6676 11.466 29.0678 7.60367 26.22 4.75596C23.3722 1.90816 19.51 0.30835 15.4827 0.30835ZM22.451 22.2072C22.3864 22.3145 22.301 22.4079 22.2001 22.482C22.099 22.556 21.9843 22.6092 21.8624 22.6385C21.7407 22.6678 21.6143 22.6727 21.4906 22.6527C21.3669 22.6327 21.2485 22.5885 21.1421 22.5223C17.5792 20.3409 13.0952 19.8561 7.81135 21.0559C7.69112 21.0846 7.56647 21.0892 7.44447 21.0692C7.32257 21.0493 7.20569 21.0054 7.10092 20.9401C6.99606 20.8747 6.90524 20.7891 6.83369 20.6883C6.76213 20.5876 6.71143 20.4736 6.68431 20.353C6.65542 20.2321 6.65083 20.1066 6.67053 19.9838C6.69031 19.861 6.73405 19.7434 6.79933 19.6375C6.86461 19.5318 6.95021 19.4399 7.05101 19.3672C7.15189 19.2945 7.26611 19.2423 7.38714 19.2138C13.1679 17.8928 18.1366 18.4624 22.1359 20.9105C22.3493 21.041 22.5023 21.2507 22.5613 21.4937C22.6204 21.7368 22.5807 21.9934 22.451 22.2072ZM24.3052 18.0746C24.1358 18.3352 23.8729 18.5206 23.5707 18.5928C23.2684 18.665 22.9501 18.6183 22.6813 18.4624C18.0734 15.892 12.6336 15.2557 7.55684 16.6931C7.39889 16.7812 7.22318 16.8328 7.0427 16.8441C6.86214 16.8554 6.68139 16.8262 6.51364 16.7586C6.34588 16.6909 6.19544 16.5867 6.07327 16.4533C5.95109 16.32 5.86028 16.1609 5.80754 15.9879C5.7548 15.8149 5.74146 15.6323 5.76849 15.4534C5.79552 15.2746 5.86222 15.1041 5.96372 14.9544C6.06523 14.8047 6.19898 14.6797 6.35507 14.5884C6.51126 14.4971 6.68581 14.4419 6.86603 14.4269C9.69969 13.6112 12.6678 13.3699 15.596 13.7176C18.5242 14.0651 21.3534 14.9943 23.9174 16.4508C24.1779 16.6201 24.3633 16.883 24.4355 17.1852C24.5077 17.4875 24.461 17.8059 24.3052 18.0746ZM24.4627 13.7725C19.6152 10.8639 11.5076 10.5973 6.82972 12.0152C6.46974 12.1245 6.08104 12.0863 5.74924 11.909C5.41743 11.7317 5.16964 11.4299 5.06037 11.0699C4.95109 10.71 4.98925 10.3213 5.16655 9.98943C5.34376 9.65767 5.64561 9.40986 6.0056 9.30061C11.3743 7.67665 20.2817 7.99175 25.917 11.3244C26.2067 11.5318 26.4078 11.8405 26.4802 12.1894C26.5525 12.5382 26.491 12.9015 26.3077 13.207C26.1244 13.5125 25.8328 13.7378 25.491 13.838C25.1491 13.9384 24.782 13.9063 24.4627 13.7482V13.7725Z" fill="white"/>
</g>
<defs>
<clipPath id="clip0_301_4511">
<rect width="30.37" height="30.37" fill="white" transform="translate(0.297607 0.30835)"/>
</clipPath>
</defs>
</svg>
