<svg width="31" height="31" viewBox="0 0 31 31" fill="none" xmlns="http://www.w3.org/2000/svg">
<path fill-rule="evenodd" clip-rule="evenodd" d="M5.96327 6.30017C4.08363 6.39329 2.57376 7.86506 2.45178 9.74304C2.33491 11.5423 2.21973 13.7562 2.21973 15.4933C2.21973 17.2304 2.33491 19.4443 2.45178 21.2436C2.57376 23.1215 4.08363 24.5933 5.96327 24.6864C8.6851 24.8213 12.5754 24.9839 15.5066 24.9839C18.4378 24.9839 22.3281 24.8213 25.0499 24.6864C26.9295 24.5933 28.4394 23.1215 28.5614 21.2436C28.6783 19.4443 28.7935 17.2304 28.7935 15.4933C28.7935 13.7562 28.6783 11.5423 28.5614 9.74304C28.4394 7.86506 26.9295 6.39329 25.0499 6.30017C22.3281 6.16532 18.4378 6.00269 15.5066 6.00269C12.5754 6.00269 8.6851 6.16532 5.96327 6.30017ZM20.2521 15.4933L12.6596 19.2896V11.6971L20.2521 15.4933Z" fill="white"/>
</svg>
