<svg width="24" height="24" viewBox="0 0 24 24" fill="none" xmlns="http://www.w3.org/2000/svg">
<path d="M18.5333 6.8665C18.5333 7.6397 17.9065 8.2665 17.1333 8.2665C16.3601 8.2665 15.7333 7.6397 15.7333 6.8665C15.7333 6.09331 16.3601 5.4665 17.1333 5.4665C17.9065 5.4665 18.5333 6.09331 18.5333 6.8665Z" fill="black"/>
<path fill-rule="evenodd" clip-rule="evenodd" d="M12 16.6665C14.5773 16.6665 16.6667 14.5772 16.6667 11.9998C16.6667 9.42251 14.5773 7.33317 12 7.33317C9.42268 7.33317 7.33334 9.42251 7.33334 11.9998C7.33334 14.5772 9.42268 16.6665 12 16.6665ZM12 14.7998C13.5464 14.7998 14.8 13.5462 14.8 11.9998C14.8 10.4534 13.5464 9.19984 12 9.19984C10.4536 9.19984 9.20001 10.4534 9.20001 11.9998C9.20001 13.5462 10.4536 14.7998 12 14.7998Z" fill="black"/>
<path fill-rule="evenodd" clip-rule="evenodd" d="M2.66667 11.6265C2.66667 8.49021 2.66667 6.92206 3.27704 5.72416C3.81393 4.67045 4.67062 3.81376 5.72433 3.27687C6.92223 2.6665 8.49038 2.6665 11.6267 2.6665H12.3733C15.5096 2.6665 17.0778 2.6665 18.2757 3.27687C19.3294 3.81376 20.1861 4.67045 20.723 5.72416C21.3333 6.92206 21.3333 8.49021 21.3333 11.6265V12.3732C21.3333 15.5095 21.3333 17.0776 20.723 18.2755C20.1861 19.3292 19.3294 20.1859 18.2757 20.7228C17.0778 21.3332 15.5096 21.3332 12.3733 21.3332H11.6267C8.49038 21.3332 6.92223 21.3332 5.72433 20.7228C4.67062 20.1859 3.81393 19.3292 3.27704 18.2755C2.66667 17.0776 2.66667 15.5095 2.66667 12.3732V11.6265ZM11.6267 4.53317H12.3733C13.9723 4.53317 15.0592 4.53462 15.8994 4.60327C16.7178 4.67013 17.1363 4.79133 17.4282 4.94008C18.1307 5.29801 18.7018 5.86913 19.0598 6.57161C19.2085 6.86355 19.3297 7.28207 19.3966 8.10044C19.4652 8.94061 19.4667 10.0276 19.4667 11.6265V12.3732C19.4667 13.9721 19.4652 15.0591 19.3966 15.8992C19.3297 16.7176 19.2085 17.1361 19.0598 17.4281C18.7018 18.1305 18.1307 18.7017 17.4282 19.0596C17.1363 19.2084 16.7178 19.3295 15.8994 19.3964C15.0592 19.4651 13.9723 19.4665 12.3733 19.4665H11.6267C10.0277 19.4665 8.94078 19.4651 8.10061 19.3964C7.28223 19.3295 6.86372 19.2084 6.57177 19.0596C5.8693 18.7017 5.29817 18.1305 4.94025 17.4281C4.79149 17.1361 4.6703 16.7176 4.60343 15.8992C4.53479 15.0591 4.53334 13.9721 4.53334 12.3732V11.6265C4.53334 10.0276 4.53479 8.94061 4.60343 8.10044C4.6703 7.28207 4.79149 6.86355 4.94025 6.57161C5.29817 5.86913 5.8693 5.29801 6.57177 4.94008C6.86372 4.79133 7.28223 4.67013 8.10061 4.60327C8.94078 4.53462 10.0277 4.53317 11.6267 4.53317Z" fill="black"/>
</svg>
