<svg width="24" height="24" viewBox="0 0 24 24" fill="none" xmlns="http://www.w3.org/2000/svg">
<path d="M6.33812 14.8444C6.45533 13.8739 6.85333 13.3306 7.60335 12.7736C8.67649 12.0193 10.017 12.446 10.017 12.446V9.91462C10.3429 9.90629 10.6689 9.92561 10.9913 9.97234V13.23C10.9913 13.23 9.65116 12.8033 8.57801 13.558C7.8284 14.1146 7.42958 14.6583 7.31278 15.6287C7.30912 16.1557 7.40801 16.8445 7.8634 17.4401C7.75081 17.3824 7.63604 17.3166 7.51911 17.2427C6.51596 16.5691 6.33324 15.5585 6.33812 14.8444ZM16.5263 5.23411C15.7881 4.42517 15.5089 3.60842 15.408 3.03467H16.3366C16.3366 3.03467 16.1515 4.53906 17.5009 6.01849L17.5197 6.03838C17.156 5.8096 16.8224 5.53956 16.5263 5.23411ZM20.9999 7.52756V10.7197C20.9999 10.7197 19.8149 10.6733 18.9379 10.4501C17.7134 10.1381 16.9263 9.65953 16.9263 9.65953C16.9263 9.65953 16.3826 9.31824 16.3387 9.29445V15.8862C16.3387 16.2532 16.2382 17.1698 15.9317 17.9343C15.5317 18.9343 14.9143 19.5908 14.8008 19.725C14.8008 19.725 14.0499 20.6123 12.7253 21.2098C11.5313 21.7489 10.483 21.7352 10.1696 21.7489C10.1696 21.7489 8.35744 21.8207 6.72677 20.7609C6.37415 20.5273 6.04499 20.2628 5.74356 19.9707L5.7517 19.9765C7.38278 21.0363 9.19455 20.9645 9.19455 20.9645C9.50831 20.9509 10.5566 20.9645 11.7502 20.4255C13.0737 19.8279 13.8257 18.9406 13.8257 18.9406C13.938 18.8064 14.5582 18.15 14.9566 17.1495C15.2623 16.3854 15.3636 15.4684 15.3636 15.1014V8.51047C15.4076 8.53465 15.9508 8.87594 15.9508 8.87594C15.9508 8.87594 16.7383 9.35491 17.9628 9.66655C18.8402 9.88966 20.0249 9.93607 20.0249 9.93607V7.43473C20.4302 7.52561 20.7757 7.55018 20.9999 7.52756Z" fill="black"/>
<path d="M20.0253 7.43473V9.93529C20.0253 9.93529 18.8407 9.88887 17.9633 9.66577C16.7387 9.35374 15.9513 8.87516 15.9513 8.87516C15.9513 8.87516 15.408 8.53387 15.364 8.50969V15.1022C15.364 15.4692 15.2635 16.3862 14.9571 17.1503C14.557 18.1507 13.9397 18.8072 13.8261 18.9414C13.8261 18.9414 13.0749 19.8287 11.7507 20.4262C10.5571 20.9653 9.50874 20.9516 9.19498 20.9653C9.19498 20.9653 7.38321 21.0371 5.75213 19.9773L5.74399 19.9715C5.57178 19.8047 5.40968 19.6286 5.25849 19.4441C4.73799 18.8095 4.41894 18.0591 4.33877 17.845C4.33863 17.844 4.33863 17.8431 4.33877 17.8422C4.20976 17.4701 3.93873 16.5765 3.97576 15.711C4.04128 14.184 4.57847 13.2467 4.72049 13.0119C5.09664 12.3716 5.58587 11.7987 6.16641 11.3188C6.6787 10.9046 7.25936 10.5751 7.88458 10.3437C8.56046 10.072 9.28422 9.92637 10.017 9.91462V12.446C10.017 12.446 8.67652 12.0208 7.60378 12.7736C6.85376 13.3306 6.45576 13.8739 6.33855 14.8444C6.33367 15.5585 6.51639 16.5691 7.51873 17.2431C7.63566 17.3172 7.75042 17.383 7.86301 17.4405C8.03812 17.6681 8.25125 17.8664 8.49379 18.0275C9.47293 18.6473 10.2934 18.6906 11.3425 18.288C12.042 18.0189 12.5686 17.4124 12.8128 16.7404C12.9662 16.3207 12.9642 15.8982 12.9642 15.4614V3.03467H15.4059C15.5069 3.60842 15.786 4.42517 16.5243 5.23411C16.8204 5.53956 17.1539 5.8096 17.5176 6.03838C17.6251 6.14954 18.1745 6.69911 18.8797 7.0365C19.2444 7.21089 19.6288 7.34452 20.0253 7.43473Z" fill="black"/>
<path d="M3.36691 17.0679V17.0698L3.4275 17.234C3.42054 17.2149 3.39803 17.1568 3.36691 17.0679Z" fill="black"/>
<path d="M7.88461 10.344C7.25939 10.5754 6.67873 10.9049 6.16644 11.3191C5.58572 11.8001 5.09661 12.3742 4.72093 13.0158C4.57891 13.2498 4.04172 14.1878 3.9762 15.7149C3.93917 16.5804 4.2102 17.4739 4.33921 17.846C4.33907 17.847 4.33907 17.8479 4.33921 17.8488C4.4206 18.061 4.73843 18.8114 5.25893 19.4479C5.41012 19.6325 5.57222 19.8085 5.74443 19.9753C5.19268 19.6095 4.7006 19.1674 4.28427 18.6632C3.76825 18.034 3.45001 17.2914 3.36699 17.0722C3.36689 17.0706 3.36689 17.0691 3.36699 17.0675V17.0648C3.23758 16.6931 2.96573 15.7991 3.00358 14.9324C3.0691 13.4054 3.60628 12.4681 3.74831 12.2333C4.12388 11.5917 4.613 11.0176 5.19382 10.5367C5.706 10.1223 6.28669 9.79279 6.91199 9.56155C7.30202 9.40646 7.70833 9.29203 8.1239 9.22027C8.75019 9.11549 9.38984 9.1064 10.0191 9.19336V9.91493C9.2856 9.92643 8.56113 10.0721 7.88461 10.344Z" fill="black"/>
<path d="M15.408 3.03476H12.9662V15.4619C12.9662 15.8987 12.9662 16.32 12.8148 16.7408C12.5682 17.4125 12.0437 18.019 11.3445 18.2881C10.295 18.6922 9.47454 18.6474 8.49581 18.0276C8.25285 17.8673 8.03917 17.6696 7.8634 17.4425C8.69726 17.8688 9.44361 17.8614 10.3682 17.5057C11.067 17.2366 11.5923 16.6301 11.8381 15.958C11.992 15.5383 11.9899 15.1159 11.9899 14.6795V2.25H15.3616C15.3616 2.25 15.3237 2.55891 15.408 3.03476ZM20.0253 6.74328V7.43483C19.6295 7.34447 19.2458 7.21085 18.8817 7.0366C18.1765 6.69921 17.6271 6.14964 17.5197 6.03848C17.6443 6.11693 17.7737 6.1883 17.9071 6.25222C18.7645 6.66255 19.609 6.78502 20.0253 6.74328Z" fill="black"/>
</svg>
